<svg id="svg" version="1.1" xmlns="http://www.w3.org/2000/svg" xmlns:xlink="http://www.w3.org/1999/xlink" width="400" height="180.57742782152232" viewBox="0, 0, 400,180.57742782152232"><g id="svgg"><path id="path0" d="M90.584 19.178 C 90.369 19.298,90.293 19.613,90.293 20.382 C 90.293 21.608,90.016 23.304,89.668 24.211 C 89.171 25.501,88.945 27.804,89.282 28.140 C 89.782 28.640,92.890 28.467,93.730 27.892 C 95.066 26.977,95.880 24.818,95.563 23.029 C 95.384 22.020,94.299 21.370,93.491 21.788 C 92.612 22.243,91.900 21.842,92.148 21.032 C 92.546 19.737,91.596 18.612,90.584 19.178 M62.637 21.814 C 61.612 21.881,61.384 22.326,62.052 22.953 C 62.577 23.447,62.584 23.667,62.118 25.028 C 61.338 27.312,60.853 27.743,59.872 27.025 C 59.191 26.528,59.792 23.578,60.675 23.078 C 61.814 22.434,61.088 21.575,59.889 22.147 C 56.590 23.720,57.165 29.369,60.513 28.274 C 61.202 28.048,61.573 28.014,61.921 28.145 C 63.821 28.858,65.673 28.115,64.184 27.236 C 63.675 26.936,63.561 26.774,63.646 26.475 C 63.912 25.542,64.333 22.587,64.236 22.334 C 64.076 21.917,63.572 21.753,62.637 21.814 M93.504 23.216 C 94.307 23.778,93.603 26.713,92.544 27.218 C 91.217 27.851,90.704 26.955,91.288 25.029 C 91.814 23.295,92.646 22.615,93.504 23.216 M263.444 24.424 C 262.268 25.365,263.024 26.245,264.319 25.444 C 264.972 25.041,266.128 25.085,266.408 25.524 C 266.758 26.075,266.551 26.922,265.991 27.232 C 265.078 27.737,264.950 27.877,264.889 28.424 C 264.837 28.890,264.908 28.973,265.553 29.195 C 266.396 29.484,266.727 29.859,266.727 30.526 C 266.727 31.418,265.512 31.999,264.603 31.542 C 263.352 30.913,262.573 31.117,262.573 32.075 C 262.573 32.424,263.911 32.636,265.587 32.551 L 267.427 32.458 267.980 31.770 C 268.536 31.078,268.761 29.779,268.367 29.535 C 268.275 29.478,268.001 29.076,267.758 28.640 L 267.315 27.848 267.737 27.333 C 268.411 26.509,268.463 25.811,267.914 24.943 L 267.445 24.199 265.585 24.199 C 264.369 24.199,263.628 24.277,263.444 24.424 M305.045 24.389 C 304.698 24.528,304.638 24.668,304.684 25.221 C 304.751 26.013,304.985 26.136,305.526 25.667 C 306.568 24.763,308.262 25.139,308.262 26.272 C 308.262 26.814,308.161 26.951,307.469 27.357 C 306.794 27.752,306.469 28.199,306.458 28.745 C 306.457 28.812,306.903 29.072,307.449 29.322 C 308.363 29.740,308.442 29.825,308.440 30.374 C 308.433 31.743,306.932 32.131,305.435 31.150 C 304.915 30.809,304.745 30.889,304.501 31.591 C 304.259 32.283,304.568 32.552,305.599 32.548 C 309.157 32.533,309.336 32.493,309.795 31.606 C 310.310 30.611,309.953 28.901,309.079 28.176 C 308.815 27.956,308.840 27.884,309.337 27.430 C 310.235 26.610,309.982 24.592,308.946 24.314 C 308.317 24.146,305.518 24.199,305.045 24.389 M295.847 25.587 C 295.403 25.676,295.375 25.854,295.611 27.080 C 295.730 27.696,295.688 28.142,295.430 28.976 C 295.246 29.577,295.006 30.677,294.899 31.422 C 294.791 32.167,294.585 33.102,294.442 33.499 C 294.298 33.896,294.013 35.155,293.807 36.297 L 293.433 38.373 293.846 38.707 C 294.209 39.001,294.532 39.033,296.535 38.979 L 298.812 38.916 299.509 38.304 C 302.164 35.972,302.601 31.250,300.284 29.937 L 299.620 29.560 298.594 30.079 C 297.150 30.810,296.692 29.606,297.609 27.486 C 298.143 26.249,297.265 25.302,295.847 25.587 M125.526 26.730 C 125.089 27.026,124.636 27.269,124.521 27.269 C 124.335 27.269,123.352 28.258,123.047 28.751 C 122.799 29.152,123.431 29.234,123.835 28.854 C 124.185 28.525,124.342 28.493,124.921 28.636 L 125.598 28.804 125.653 32.144 C 125.683 33.982,125.657 35.910,125.596 36.428 L 125.483 37.371 124.406 37.764 C 122.494 38.461,123.899 39.090,127.043 38.945 C 129.670 38.823,130.653 38.336,129.110 37.921 C 127.538 37.497,127.391 36.816,127.537 30.654 C 127.652 25.836,127.444 25.430,125.526 26.730 M76.870 28.003 C 76.637 28.335,76.569 28.847,76.569 30.260 C 76.569 32.594,76.488 32.686,74.460 32.686 C 72.439 32.686,71.874 32.907,71.874 33.697 C 71.874 34.035,71.894 34.320,71.919 34.330 C 71.944 34.340,72.887 34.404,74.015 34.472 C 76.563 34.626,76.569 34.631,76.569 36.956 C 76.569 38.653,76.795 39.549,77.225 39.549 C 77.712 39.549,78.014 38.528,78.014 36.877 C 78.014 34.754,78.164 34.603,80.335 34.531 C 82.668 34.454,82.740 34.426,82.674 33.635 C 82.607 32.839,82.343 32.731,80.397 32.704 C 79.602 32.693,78.868 32.577,78.546 32.411 L 78.014 32.135 78.014 30.344 C 78.014 28.728,77.972 28.505,77.592 28.063 L 77.171 27.573 76.870 28.003 M280.638 28.340 C 280.536 28.532,280.451 29.454,280.451 30.389 C 280.451 32.610,280.375 32.686,278.157 32.686 C 276.417 32.686,276.258 32.757,276.050 33.627 C 275.885 34.322,276.317 34.492,278.245 34.492 C 280.383 34.492,280.451 34.568,280.451 36.911 C 280.451 38.800,280.620 39.368,281.180 39.368 C 282.002 39.368,282.257 38.776,282.257 36.868 C 282.257 34.572,282.332 34.492,284.469 34.492 C 286.410 34.492,286.591 34.424,286.591 33.696 C 286.591 32.807,286.342 32.686,284.507 32.686 C 282.334 32.686,282.257 32.607,282.257 30.358 C 282.257 28.411,282.097 27.991,281.354 27.991 C 281.016 27.991,280.758 28.117,280.638 28.340 M47.793 28.557 C 47.397 28.787,46.953 29.779,46.953 30.435 C 46.953 30.734,46.757 31.069,46.411 31.360 C 45.748 31.917,45.747 31.967,46.366 32.902 C 46.835 33.611,46.866 33.787,46.925 36.071 C 46.987 38.412,47.002 38.495,47.417 38.684 C 48.237 39.058,48.397 38.669,48.397 36.298 C 48.397 33.434,48.465 33.170,49.355 32.581 L 50.090 32.094 49.675 31.758 C 49.447 31.573,49.157 31.422,49.031 31.422 C 48.093 31.422,48.324 29.879,49.302 29.616 C 50.810 29.210,50.639 28.348,49.052 28.358 C 48.543 28.361,47.977 28.450,47.793 28.557 M241.303 28.634 C 240.777 29.003,240.361 29.824,240.361 30.497 C 240.361 30.842,240.212 31.153,239.946 31.364 C 239.273 31.898,239.249 32.082,239.771 32.704 C 240.253 33.276,240.270 33.368,240.334 35.874 C 240.408 38.725,240.529 39.055,241.360 38.676 C 241.798 38.476,241.806 38.434,241.806 36.329 C 241.806 33.806,241.975 33.196,242.814 32.702 C 243.640 32.214,243.592 31.857,242.635 31.392 L 241.838 31.005 242.122 30.411 C 242.277 30.084,242.633 29.722,242.912 29.607 C 244.164 29.088,243.950 28.352,242.546 28.352 C 242.077 28.352,241.528 28.477,241.303 28.634 M357.652 28.480 C 357.192 28.590,356.093 29.792,356.239 30.028 C 356.304 30.133,356.816 30.162,357.498 30.098 C 358.759 29.980,359.907 30.425,359.912 31.034 C 359.914 31.198,359.961 31.505,360.018 31.718 C 360.146 32.194,359.379 33.098,358.465 33.548 C 357.696 33.928,357.540 34.811,358.019 36.067 C 358.391 37.041,358.652 36.984,359.016 35.851 C 359.225 35.199,359.556 34.745,360.320 34.058 C 363.044 31.610,361.149 27.647,357.652 28.480 M144.880 29.021 C 144.000 30.362,144.398 38.826,145.341 38.826 C 145.989 38.826,146.095 38.459,146.095 36.208 L 146.095 34.024 146.772 33.367 C 148.207 31.977,148.984 33.003,148.984 36.288 C 148.984 38.685,149.141 39.060,149.983 38.676 C 150.428 38.473,150.429 38.465,150.429 35.833 C 150.429 31.953,149.984 31.289,147.504 31.467 C 146.118 31.566,146.220 31.673,146.016 29.905 C 145.855 28.516,145.429 28.184,144.880 29.021 M210.000 28.831 C 209.807 29.063,209.740 30.168,209.698 33.797 L 209.644 38.465 210.099 38.672 C 211.089 39.123,211.134 38.897,211.072 33.766 C 211.010 28.654,210.831 27.830,210.000 28.831 M330.704 29.021 C 330.181 29.819,330.122 37.854,330.634 38.479 C 331.514 39.551,331.643 38.993,331.696 33.879 C 331.751 28.574,331.572 27.697,330.704 29.021 M334.063 28.831 C 333.652 29.325,333.597 38.315,334.002 38.651 C 334.256 38.862,334.372 38.859,334.780 38.630 L 335.260 38.360 335.260 33.826 C 335.260 29.621,335.235 29.265,334.916 28.913 C 334.501 28.455,334.385 28.444,334.063 28.831 M341.206 28.979 C 340.722 29.718,340.704 38.201,341.187 38.554 C 341.604 38.859,344.760 39.104,345.521 38.890 C 347.091 38.448,347.904 35.201,346.927 33.268 C 346.132 31.694,345.859 31.516,344.202 31.491 C 342.467 31.465,342.393 31.420,342.390 30.373 C 342.385 28.881,341.756 28.139,341.206 28.979 M176.779 29.104 C 176.566 29.502,176.509 38.148,176.717 38.485 C 176.895 38.773,178.191 38.671,178.310 38.360 C 178.371 38.203,178.420 37.157,178.420 36.037 C 178.420 34.229,178.463 33.944,178.806 33.508 C 180.154 31.794,181.309 33.153,181.309 36.453 C 181.309 38.426,181.320 38.477,181.755 38.676 C 182.633 39.076,182.754 38.723,182.754 35.759 L 182.754 33.097 182.197 32.396 C 181.434 31.436,181.376 31.410,180.044 31.457 C 178.636 31.506,178.420 31.398,178.419 30.644 C 178.416 28.943,177.384 27.974,176.779 29.104 M29.797 29.403 C 28.955 29.785,27.630 30.948,27.633 31.304 C 27.637 31.923,27.897 32.199,28.343 32.057 C 29.194 31.787,29.436 32.345,29.430 34.565 C 29.424 36.742,29.347 36.958,28.403 37.446 C 26.608 38.373,27.596 39.007,30.834 39.007 C 33.963 39.007,34.398 38.628,32.867 37.240 L 31.964 36.420 31.964 33.119 C 31.964 29.297,31.560 28.604,29.797 29.403 M327.075 29.446 C 326.367 29.730,326.644 30.239,327.543 30.304 C 328.383 30.365,328.718 30.022,328.305 29.524 C 328.054 29.222,327.692 29.199,327.075 29.446 M43.196 29.652 C 42.833 30.016,42.895 38.174,43.264 38.543 C 43.533 38.812,44.328 38.780,44.630 38.487 C 44.725 38.395,44.829 36.560,44.995 32.054 C 45.068 30.083,44.082 28.766,43.196 29.652 M255.982 29.778 C 252.734 30.908,250.822 34.750,251.988 37.803 C 252.565 39.313,254.796 39.593,256.130 38.322 L 256.644 37.833 257.052 38.342 C 257.725 39.181,259.278 39.304,260.189 38.590 C 260.618 38.254,260.359 37.666,259.684 37.446 C 259.123 37.264,259.053 37.172,259.065 36.634 C 259.086 35.705,259.665 32.690,259.990 31.823 C 260.434 30.636,260.146 30.158,258.988 30.158 C 258.501 30.158,257.811 30.036,257.454 29.887 C 256.760 29.597,256.547 29.581,255.982 29.778 M172.033 30.474 C 171.795 30.847,171.389 31.348,171.129 31.588 L 170.658 32.024 171.151 32.671 C 171.609 33.272,171.653 33.481,171.756 35.576 C 171.910 38.692,172.067 38.993,173.565 39.032 C 175.206 39.075,175.665 38.229,174.265 37.743 L 173.454 37.461 173.401 35.661 C 173.334 33.382,173.412 33.084,174.152 32.775 C 175.308 32.292,175.349 31.835,174.266 31.512 C 173.628 31.322,173.379 31.086,173.091 30.398 C 172.769 29.626,172.565 29.641,172.033 30.474 M139.871 30.564 C 139.736 30.887,139.415 31.349,139.157 31.590 L 138.689 32.029 139.055 32.419 C 139.591 32.990,139.774 33.830,139.774 35.722 C 139.774 38.119,140.311 39.011,141.747 39.001 C 143.297 38.990,143.641 38.310,142.393 37.724 L 141.580 37.342 141.593 35.511 C 141.608 33.355,141.655 33.202,142.483 32.646 C 143.283 32.108,143.276 31.952,142.434 31.541 C 142.059 31.358,141.636 30.982,141.493 30.706 C 141.270 30.274,140.786 29.989,140.262 29.980 C 140.182 29.979,140.006 30.242,139.871 30.564 M104.247 30.847 C 103.813 31.122,103.760 32.091,104.168 32.308 C 104.657 32.570,113.655 32.580,114.143 32.319 C 114.565 32.093,114.590 31.642,114.211 31.101 C 113.919 30.685,104.865 30.454,104.247 30.847 M257.878 32.405 C 257.878 34.159,256.171 37.425,255.147 37.630 C 252.875 38.084,253.679 32.413,256.049 31.268 C 256.922 30.846,257.878 31.441,257.878 32.405 M154.012 31.646 C 151.956 32.619,151.370 36.258,152.971 38.104 L 153.676 38.916 155.370 38.978 C 156.671 39.026,157.195 38.972,157.629 38.748 C 158.733 38.177,158.107 37.744,156.174 37.740 C 154.649 37.737,154.513 37.676,154.062 36.791 L 153.728 36.136 154.272 35.946 C 154.572 35.842,155.435 35.755,156.189 35.754 C 157.838 35.750,158.442 35.497,158.525 34.775 C 158.794 32.432,156.181 30.620,154.012 31.646 M162.528 31.626 C 162.280 31.725,161.874 31.768,161.627 31.721 C 160.454 31.499,160.235 32.191,160.327 35.813 C 160.394 38.424,160.406 38.493,160.824 38.684 C 161.652 39.061,161.806 38.674,161.806 36.222 L 161.806 34.024 162.498 33.348 C 163.933 31.947,164.695 32.909,164.695 36.121 C 164.695 38.813,165.100 39.515,166.047 38.468 C 166.488 37.981,166.370 33.474,165.892 32.550 C 165.374 31.548,163.802 31.116,162.528 31.626 M185.586 32.134 C 183.843 33.740,183.995 37.790,185.832 38.740 C 186.664 39.170,189.458 39.107,190.003 38.646 C 190.660 38.089,190.087 37.743,188.507 37.743 C 187.033 37.743,186.463 37.511,186.165 36.792 C 185.829 35.980,186.253 35.756,188.125 35.756 C 190.633 35.756,191.270 35.065,190.423 33.263 C 189.765 31.861,189.271 31.529,187.725 31.451 L 186.399 31.384 185.586 32.134 M203.025 31.608 C 202.595 31.781,202.487 32.302,202.813 32.628 C 202.932 32.747,203.447 32.788,204.128 32.733 C 205.370 32.633,205.610 32.773,205.716 33.659 C 205.793 34.302,205.567 34.439,204.177 34.589 C 201.754 34.852,200.838 37.777,202.843 38.850 C 203.256 39.071,206.528 38.910,207.256 38.633 C 207.941 38.373,207.897 33.761,207.198 32.569 C 206.557 31.474,204.523 31.006,203.025 31.608 M222.292 31.880 C 220.492 33.204,220.091 35.737,221.352 37.824 C 221.986 38.873,222.565 39.073,224.676 38.972 C 227.414 38.841,227.733 37.745,225.034 37.740 C 223.427 37.737,222.833 37.494,222.638 36.760 C 222.408 35.901,222.682 35.756,224.542 35.756 C 226.917 35.756,227.538 35.034,226.810 33.118 C 226.196 31.504,223.724 30.826,222.292 31.880 M232.909 32.083 C 231.206 33.456,231.101 37.049,232.722 38.473 C 233.363 39.035,233.384 39.039,235.062 38.978 L 236.755 38.916 237.382 38.232 C 239.771 35.623,238.494 31.588,235.237 31.451 L 233.770 31.389 232.909 32.083 M299.241 31.698 C 300.735 32.470,299.135 37.506,297.301 37.804 C 295.866 38.037,295.575 37.398,296.061 35.086 C 296.623 32.418,297.933 31.021,299.241 31.698 M350.339 31.624 C 347.934 32.647,347.763 37.929,350.104 38.853 C 350.739 39.104,353.402 39.020,353.959 38.731 C 355.036 38.175,354.378 37.743,352.455 37.743 C 351.043 37.743,350.840 37.641,350.345 36.685 C 350.001 36.021,350.331 35.872,352.397 35.757 C 354.751 35.627,354.918 35.512,354.816 34.099 C 354.669 32.071,352.329 30.777,350.339 31.624 M195.314 31.844 C 194.869 32.170,195.019 33.590,195.638 34.911 C 195.879 35.426,196.136 36.131,196.209 36.479 C 196.805 39.315,198.907 39.800,199.565 37.252 C 199.725 36.635,199.947 36.019,200.059 35.885 C 200.170 35.750,200.395 35.117,200.558 34.479 C 200.721 33.841,200.972 33.087,201.117 32.805 C 201.502 32.055,201.311 31.750,200.498 31.817 C 199.840 31.872,199.809 31.907,199.458 32.978 C 199.046 34.238,198.161 35.937,197.917 35.937 C 197.827 35.937,197.623 35.510,197.464 34.989 C 196.743 32.617,195.915 31.405,195.314 31.844 M213.309 31.819 C 213.160 31.969,213.093 32.880,213.093 34.754 C 213.094 38.873,213.399 39.211,216.810 38.870 C 219.455 38.606,219.233 38.909,219.233 35.577 C 219.233 32.246,219.122 31.783,218.330 31.783 C 217.585 31.783,217.427 32.261,217.427 34.498 C 217.427 36.644,217.132 37.468,216.303 37.633 C 215.055 37.883,214.692 37.185,214.539 34.245 C 214.444 32.432,214.375 32.062,214.087 31.852 C 213.670 31.547,213.585 31.544,213.309 31.819 M320.065 31.864 C 319.458 32.128,319.217 32.649,319.016 34.131 C 318.782 35.856,317.746 35.282,317.167 33.105 C 316.830 31.843,316.275 31.438,315.542 31.920 C 315.245 32.116,316.398 36.585,317.184 38.284 C 317.640 39.270,319.172 38.942,319.383 37.814 C 319.503 37.176,320.419 35.756,320.711 35.756 C 320.802 35.756,320.968 36.223,321.079 36.795 C 321.714 40.069,323.805 39.482,324.501 35.833 C 324.594 35.344,324.837 34.578,325.040 34.131 C 325.491 33.140,325.527 32.099,325.123 31.764 C 324.614 31.341,323.693 32.615,323.330 34.243 C 323.167 34.977,322.972 35.615,322.898 35.661 C 322.749 35.753,321.856 34.019,321.327 32.611 C 320.943 31.590,320.838 31.528,320.065 31.864 M326.864 32.141 C 326.745 32.363,326.692 33.643,326.722 35.527 L 326.772 38.555 327.585 38.555 L 328.397 38.555 328.447 35.644 C 328.504 32.294,328.391 31.783,327.595 31.783 C 327.242 31.783,326.989 31.907,326.864 32.141 M56.711 32.855 C 55.802 34.554,56.504 34.853,61.400 34.853 C 66.061 34.853,66.275 34.799,66.275 33.615 C 66.275 32.501,66.296 32.506,61.370 32.506 C 57.133 32.506,56.888 32.524,56.711 32.855 M88.236 32.791 C 87.527 34.638,88.015 34.853,92.912 34.853 C 97.809 34.853,98.297 34.638,97.588 32.791 C 97.422 32.359,88.402 32.359,88.236 32.791 M156.548 33.469 C 156.871 34.323,156.698 34.485,155.455 34.489 C 153.990 34.494,153.879 34.381,154.318 33.331 C 154.740 32.321,156.145 32.409,156.548 33.469 M188.510 32.849 C 188.647 32.936,188.769 33.320,188.781 33.704 L 188.804 34.402 187.613 34.455 C 186.075 34.523,185.832 34.288,186.468 33.352 C 186.935 32.665,187.860 32.438,188.510 32.849 M225.141 33.390 C 225.738 34.279,225.464 34.522,223.944 34.455 L 222.754 34.402 222.785 33.778 C 222.846 32.521,224.387 32.268,225.141 33.390 M235.956 33.063 C 237.544 34.381,236.874 37.743,235.024 37.743 C 233.776 37.743,233.022 36.568,233.194 34.892 C 233.372 33.156,234.871 32.163,235.956 33.063 M344.487 32.867 C 345.360 32.867,345.861 36.542,345.088 37.280 C 343.229 39.055,341.249 35.227,343.065 33.367 C 343.435 32.988,343.848 32.721,343.983 32.773 C 344.118 32.824,344.345 32.867,344.487 32.867 M352.846 33.469 C 353.172 34.331,352.997 34.487,351.693 34.487 C 350.422 34.487,350.216 34.324,350.525 33.561 C 351.010 32.364,352.406 32.309,352.846 33.469 M103.958 34.974 C 103.758 35.173,103.822 36.030,104.054 36.262 C 104.475 36.683,114.075 36.559,114.305 36.129 C 114.578 35.619,114.534 35.088,114.206 34.963 C 113.816 34.813,104.108 34.823,103.958 34.974 M205.687 36.025 C 206.177 36.616,205.564 37.743,204.752 37.743 C 203.848 37.743,203.516 37.459,203.639 36.791 C 203.817 35.824,205.116 35.338,205.687 36.025 M35.859 36.762 C 35.072 37.550,35.622 38.826,36.749 38.826 C 37.662 38.826,37.923 38.583,37.923 37.735 C 37.923 36.633,36.608 36.013,35.859 36.762 M133.159 36.919 C 132.622 37.153,132.588 37.228,132.491 38.402 C 132.434 39.082,132.335 39.896,132.271 40.210 C 131.998 41.536,133.600 41.037,134.361 39.558 C 134.736 38.829,134.681 37.211,134.271 36.911 C 133.859 36.609,133.871 36.609,133.159 36.919 M357.997 37.802 C 357.430 38.289,357.709 39.007,358.465 39.007 C 359.185 39.007,359.481 38.315,358.977 37.812 L 358.518 37.353 357.997 37.802 M59.253 39.171 C 59.057 39.295,59.045 39.448,59.194 39.878 C 59.336 40.285,59.323 40.632,59.145 41.226 C 59.012 41.667,58.810 42.668,58.696 43.451 C 58.582 44.235,58.331 45.343,58.138 45.915 C 57.725 47.140,57.691 47.912,58.038 48.200 C 58.314 48.428,61.959 48.331,62.379 48.084 C 65.281 46.379,64.858 40.224,61.951 41.849 C 61.194 42.272,60.862 41.899,60.986 40.764 C 61.147 39.291,60.297 38.509,59.253 39.171 M93.183 42.140 C 93.183 42.374,93.270 42.813,93.376 43.117 C 93.751 44.193,92.654 47.314,91.900 47.314 C 90.965 47.314,90.425 46.762,90.526 45.909 C 90.663 44.751,91.442 43.249,92.111 42.854 C 92.936 42.366,92.727 41.980,91.658 42.018 C 89.981 42.079,88.927 43.899,89.059 46.508 C 89.156 48.439,90.430 48.996,92.409 47.972 C 92.924 47.706,92.979 47.711,93.279 48.043 C 93.665 48.469,94.557 48.507,95.446 48.136 C 96.232 47.807,96.229 47.778,95.343 47.219 C 94.517 46.698,94.504 46.469,95.191 44.385 C 95.868 42.327,95.628 41.716,94.140 41.716 C 93.256 41.716,93.183 41.748,93.183 42.140 M62.677 43.366 C 62.960 43.895,62.734 45.452,62.292 46.013 C 62.099 46.259,61.941 46.568,61.941 46.700 C 61.941 46.969,61.550 47.206,60.818 47.381 C 59.628 47.665,59.542 45.503,60.676 43.823 C 61.340 42.839,62.280 42.624,62.677 43.366 M30.045 70.426 C 29.674 70.576,29.499 70.983,28.451 74.131 C 28.286 74.628,27.985 75.440,27.783 75.937 C 27.003 77.851,26.699 79.341,27.036 79.594 C 27.741 80.121,29.255 79.488,29.255 78.667 C 29.255 78.077,29.791 77.833,31.082 77.833 C 32.461 77.833,32.799 78.035,33.445 79.244 C 33.817 79.939,35.098 80.086,35.633 79.494 C 35.967 79.126,35.781 78.047,35.318 77.663 C 35.179 77.548,34.966 77.031,34.845 76.515 C 34.723 75.998,34.476 75.282,34.296 74.923 C 34.115 74.564,33.868 73.873,33.747 73.388 C 33.050 70.609,31.891 69.681,30.045 70.426 M64.289 71.035 C 62.721 71.919,62.625 72.201,63.747 72.615 L 64.560 72.915 64.609 76.623 L 64.657 80.332 63.655 80.806 C 62.161 81.512,62.922 81.984,65.553 81.984 C 68.166 81.984,68.916 81.531,67.450 80.837 L 66.462 80.369 66.414 75.556 C 66.355 69.683,66.424 69.830,64.289 71.035 M31.427 74.231 C 31.836 75.033,31.774 75.561,31.237 75.849 C 30.619 76.180,30.328 75.184,30.717 74.068 C 30.968 73.349,30.978 73.351,31.427 74.231 M36.760 77.873 C 36.091 78.827,36.585 79.819,37.728 79.819 C 38.547 79.819,39.007 79.386,39.007 78.614 C 39.007 77.530,37.377 76.992,36.760 77.873 M27.851 98.882 C 27.260 99.295,27.215 107.673,27.802 107.987 C 29.057 108.658,32.711 108.321,33.726 107.439 C 34.899 106.420,35.135 104.913,34.299 103.783 C 33.861 103.189,33.810 102.670,34.047 101.180 C 34.199 100.223,33.643 99.222,32.755 98.851 C 31.881 98.485,28.385 98.507,27.851 98.882 M64.016 98.781 C 62.532 99.241,61.742 100.913,61.625 103.845 C 61.494 107.129,61.748 108.421,62.737 109.497 L 63.509 110.339 65.126 110.339 C 67.834 110.339,69.012 108.605,69.052 104.560 C 69.097 100.119,67.098 97.825,64.016 98.781 M66.451 100.767 C 67.320 102.335,67.196 107.592,66.262 108.780 C 65.847 109.307,64.679 109.454,64.323 109.025 C 63.435 107.956,63.142 103.268,63.834 101.219 C 64.002 100.722,64.172 100.210,64.212 100.080 C 64.413 99.431,65.975 99.911,66.451 100.767 M31.426 100.862 L 31.855 101.318 31.469 101.704 C 30.973 102.200,29.921 101.982,29.832 101.366 C 29.710 100.527,30.790 100.185,31.426 100.862 M31.558 104.210 C 32.083 104.393,32.317 104.789,32.323 105.504 C 32.327 106.095,31.055 106.569,30.365 106.234 C 29.579 105.854,29.561 104.394,30.339 104.179 C 30.984 104.000,30.954 104.000,31.558 104.210 M36.695 106.092 C 35.430 107.157,36.883 108.844,38.244 107.890 C 38.699 107.572,38.803 106.541,38.414 106.218 C 37.773 105.685,37.226 105.646,36.695 106.092 M29.822 127.977 C 26.660 128.638,26.106 135.589,29.077 137.325 C 30.690 138.268,34.191 137.801,34.414 136.613 C 34.594 135.653,34.437 135.557,32.899 135.687 C 30.336 135.904,29.527 135.128,29.643 132.568 C 29.736 130.509,31.121 129.249,32.506 129.964 C 34.039 130.757,35.059 129.759,33.965 128.536 C 33.432 127.939,31.350 127.658,29.822 127.977 M77.632 128.512 C 77.497 128.675,77.034 128.959,76.604 129.143 C 75.537 129.601,75.566 130.247,76.659 130.384 L 77.381 130.474 77.430 134.243 C 77.484 138.370,77.491 138.339,76.390 138.669 C 75.597 138.906,75.512 139.060,75.965 139.436 C 76.423 139.817,80.277 139.780,80.985 139.389 L 81.519 139.093 80.624 138.666 C 79.486 138.123,79.506 138.228,79.480 132.796 C 79.461 129.000,79.421 128.422,79.173 128.326 C 78.642 128.123,77.879 128.215,77.632 128.512 M62.754 134.309 C 61.723 134.460,61.435 135.053,62.221 135.411 C 63.544 136.014,72.144 135.570,72.144 134.898 C 72.144 134.293,65.650 133.886,62.754 134.309 M36.749 135.209 C 35.355 135.549,35.384 137.253,36.790 137.534 C 38.035 137.783,38.791 136.309,37.839 135.490 C 37.576 135.264,37.305 135.088,37.236 135.100 C 37.167 135.111,36.948 135.160,36.749 135.209 M28.172 156.444 L 27.540 156.659 27.491 161.032 L 27.443 165.405 27.888 165.697 C 28.769 166.274,32.765 166.003,33.772 165.298 C 36.471 163.409,36.529 158.923,33.880 157.036 C 32.817 156.280,29.624 155.948,28.172 156.444 M62.883 156.592 C 62.032 156.837,61.549 157.842,62.028 158.371 C 62.461 158.849,62.536 158.837,63.294 158.171 C 64.652 156.979,66.147 157.303,66.377 158.840 C 66.560 160.056,66.111 161.063,64.569 162.902 C 63.820 163.795,63.070 164.746,62.902 165.017 C 62.734 165.287,62.461 165.670,62.294 165.869 C 60.841 167.603,61.487 168.126,65.081 168.126 C 68.218 168.126,68.623 167.994,68.623 166.970 C 68.623 165.931,68.072 165.624,67.077 166.107 C 65.584 166.832,64.289 166.619,64.289 165.649 C 64.289 165.382,65.893 163.398,66.739 162.619 C 70.500 159.151,67.932 155.136,62.883 156.592 M32.128 158.536 C 34.773 159.861,33.058 164.820,30.349 163.681 L 29.797 163.449 29.797 161.105 C 29.797 157.993,30.186 157.564,32.128 158.536 M37.668 163.620 C 36.373 164.007,36.518 165.615,37.873 165.886 C 39.086 166.129,39.783 164.733,38.893 163.843 C 38.443 163.393,38.432 163.391,37.668 163.620 " stroke="none" fill="#313b5b" fill-rule="evenodd"></path><path id="path1" d="M0.000 90.293 L 0.000 180.587 200.000 180.587 L 400.000 180.587 400.000 90.293 L 400.000 0.000 200.000 0.000 L 0.000 0.000 0.000 90.293 M92.168 19.833 C 92.277 20.212,92.270 20.637,92.148 21.032 C 91.900 21.842,92.612 22.243,93.491 21.788 C 94.299 21.370,95.384 22.020,95.563 23.029 C 95.880 24.818,95.066 26.977,93.730 27.892 C 92.890 28.467,89.782 28.640,89.282 28.140 C 88.945 27.804,89.171 25.501,89.668 24.211 C 90.016 23.304,90.293 21.608,90.293 20.382 C 90.293 18.852,91.763 18.422,92.168 19.833 M64.236 22.334 C 64.333 22.587,63.912 25.542,63.646 26.475 C 63.561 26.774,63.675 26.936,64.184 27.236 C 65.673 28.115,63.821 28.858,61.921 28.145 C 61.573 28.014,61.202 28.048,60.513 28.274 C 57.165 29.369,56.590 23.720,59.889 22.147 C 61.088 21.575,61.814 22.434,60.675 23.078 C 59.213 23.906,59.236 27.269,60.703 27.269 C 61.762 27.269,62.870 23.723,62.052 22.953 C 61.384 22.326,61.612 21.881,62.637 21.814 C 63.572 21.753,64.076 21.917,64.236 22.334 M92.018 23.539 C 90.483 25.551,90.838 28.031,92.544 27.218 C 93.603 26.713,94.307 23.778,93.504 23.216 C 92.898 22.792,92.526 22.872,92.018 23.539 M267.914 24.943 C 268.463 25.811,268.411 26.509,267.737 27.333 L 267.315 27.848 267.758 28.640 C 268.001 29.076,268.275 29.478,268.367 29.535 C 268.761 29.779,268.536 31.078,267.980 31.770 L 267.427 32.458 265.587 32.551 C 263.911 32.636,262.573 32.424,262.573 32.075 C 262.573 31.117,263.352 30.913,264.603 31.542 C 265.512 31.999,266.727 31.418,266.727 30.526 C 266.727 29.859,266.396 29.484,265.553 29.195 C 264.908 28.973,264.837 28.890,264.889 28.424 C 264.950 27.877,265.078 27.737,265.991 27.232 C 266.551 26.922,266.758 26.075,266.408 25.524 C 266.128 25.085,264.972 25.041,264.319 25.444 C 263.319 26.062,262.724 25.972,262.967 25.237 C 263.277 24.302,263.537 24.199,265.585 24.199 L 267.445 24.199 267.914 24.943 M308.946 24.314 C 309.982 24.592,310.235 26.610,309.337 27.430 C 308.840 27.884,308.815 27.956,309.079 28.176 C 309.953 28.901,310.310 30.611,309.795 31.606 C 309.336 32.493,309.157 32.533,305.599 32.548 C 304.568 32.552,304.259 32.283,304.501 31.591 C 304.745 30.889,304.915 30.809,305.435 31.150 C 306.932 32.131,308.433 31.743,308.440 30.374 C 308.442 29.825,308.363 29.740,307.449 29.322 C 306.903 29.072,306.457 28.812,306.458 28.745 C 306.469 28.199,306.794 27.752,307.469 27.357 C 308.161 26.951,308.262 26.814,308.262 26.272 C 308.262 25.139,306.568 24.763,305.526 25.667 C 304.985 26.136,304.751 26.013,304.684 25.221 C 304.607 24.309,307.014 23.797,308.946 24.314 M297.472 25.956 C 297.825 26.275,297.878 26.863,297.609 27.486 C 296.692 29.606,297.150 30.810,298.594 30.079 L 299.620 29.560 300.284 29.937 C 302.601 31.250,302.164 35.972,299.509 38.304 L 298.812 38.916 296.535 38.979 C 294.532 39.033,294.209 39.001,293.846 38.707 L 293.433 38.373 293.807 36.297 C 294.013 35.155,294.298 33.896,294.442 33.499 C 294.585 33.102,294.791 32.167,294.899 31.422 C 295.006 30.677,295.246 29.577,295.430 28.976 C 295.688 28.142,295.730 27.696,295.611 27.080 C 295.526 26.638,295.452 26.139,295.448 25.972 C 295.434 25.412,296.856 25.401,297.472 25.956 M127.252 26.451 C 127.623 26.711,127.629 26.805,127.537 30.654 C 127.391 36.816,127.538 37.497,129.110 37.921 C 130.653 38.336,129.670 38.823,127.043 38.945 C 123.899 39.090,122.494 38.461,124.406 37.764 L 125.483 37.371 125.596 36.428 C 125.657 35.910,125.683 33.982,125.653 32.144 L 125.598 28.804 124.921 28.636 C 124.342 28.493,124.185 28.525,123.835 28.854 C 123.431 29.234,122.799 29.152,123.047 28.751 C 123.352 28.258,124.335 27.269,124.521 27.269 C 124.636 27.269,125.089 27.026,125.526 26.730 C 126.427 26.120,126.713 26.073,127.252 26.451 M78.014 30.344 L 78.014 32.135 78.546 32.411 C 78.868 32.577,79.602 32.693,80.397 32.704 C 82.343 32.731,82.607 32.839,82.674 33.635 C 82.740 34.426,82.668 34.454,80.335 34.531 C 78.164 34.603,78.014 34.754,78.014 36.877 C 78.014 38.528,77.712 39.549,77.225 39.549 C 76.795 39.549,76.569 38.653,76.569 36.956 C 76.569 34.631,76.563 34.626,74.015 34.472 C 72.887 34.404,71.944 34.340,71.919 34.330 C 71.894 34.320,71.874 34.035,71.874 33.697 C 71.874 32.907,72.439 32.686,74.460 32.686 C 76.488 32.686,76.569 32.594,76.569 30.260 C 76.569 28.847,76.637 28.335,76.870 28.003 L 77.171 27.573 77.592 28.063 C 77.972 28.505,78.014 28.728,78.014 30.344 M282.070 28.340 C 282.173 28.532,282.257 29.440,282.257 30.358 C 282.257 32.607,282.334 32.686,284.507 32.686 C 286.342 32.686,286.591 32.807,286.591 33.696 C 286.591 34.424,286.410 34.492,284.469 34.492 C 282.332 34.492,282.257 34.572,282.257 36.868 C 282.257 38.776,282.002 39.368,281.180 39.368 C 280.620 39.368,280.451 38.800,280.451 36.911 C 280.451 34.568,280.383 34.492,278.245 34.492 C 276.317 34.492,275.885 34.322,276.050 33.627 C 276.258 32.757,276.417 32.686,278.157 32.686 C 280.375 32.686,280.451 32.610,280.451 30.389 C 280.451 28.411,280.609 27.991,281.354 27.991 C 281.693 27.991,281.951 28.117,282.070 28.340 M50.203 28.623 C 50.517 29.001,50.171 29.382,49.302 29.616 C 48.324 29.879,48.093 31.422,49.031 31.422 C 49.157 31.422,49.447 31.573,49.675 31.758 L 50.090 32.094 49.355 32.581 C 48.465 33.170,48.397 33.434,48.397 36.298 C 48.397 38.669,48.237 39.058,47.417 38.684 C 47.002 38.495,46.987 38.412,46.925 36.071 C 46.866 33.787,46.835 33.611,46.366 32.902 C 45.747 31.967,45.748 31.917,46.411 31.360 C 46.757 31.069,46.953 30.734,46.953 30.435 C 46.953 28.778,49.263 27.490,50.203 28.623 M243.612 28.623 C 243.891 28.959,243.647 29.302,242.912 29.607 C 242.633 29.722,242.277 30.084,242.122 30.411 L 241.838 31.005 242.635 31.392 C 243.592 31.857,243.640 32.214,242.814 32.702 C 241.975 33.196,241.806 33.806,241.806 36.329 C 241.806 38.434,241.798 38.476,241.360 38.676 C 240.529 39.055,240.408 38.725,240.334 35.874 C 240.270 33.368,240.253 33.276,239.771 32.704 C 239.249 32.082,239.273 31.898,239.946 31.364 C 240.212 31.153,240.361 30.842,240.361 30.497 C 240.361 28.881,242.705 27.530,243.612 28.623 M359.368 28.530 C 361.972 29.255,362.467 32.129,360.320 34.058 C 359.556 34.745,359.225 35.199,359.016 35.851 C 358.652 36.984,358.391 37.041,358.019 36.067 C 357.540 34.811,357.696 33.928,358.465 33.548 C 359.379 33.098,360.146 32.194,360.018 31.718 C 359.961 31.505,359.914 31.198,359.912 31.034 C 359.907 30.425,358.759 29.980,357.498 30.098 C 356.095 30.229,355.942 30.056,356.710 29.208 C 357.468 28.371,358.161 28.194,359.368 28.530 M145.711 28.777 C 145.823 28.911,145.960 29.419,146.016 29.905 C 146.220 31.673,146.118 31.566,147.504 31.467 C 149.984 31.289,150.429 31.953,150.429 35.833 C 150.429 38.465,150.428 38.473,149.983 38.676 C 149.141 39.060,148.984 38.685,148.984 36.288 C 148.984 33.003,148.207 31.977,146.772 33.367 L 146.095 34.024 146.095 36.208 C 146.095 38.459,145.989 38.826,145.341 38.826 C 144.546 38.826,144.447 38.226,144.505 33.733 C 144.566 29.007,144.869 27.762,145.711 28.777 M210.768 28.831 C 211.168 29.313,211.235 38.314,210.841 38.641 C 210.617 38.827,210.453 38.833,210.099 38.672 L 209.644 38.465 209.698 33.797 C 209.757 28.652,209.935 27.828,210.768 28.831 M331.554 28.888 C 331.922 29.575,331.710 38.478,331.321 38.716 C 330.434 39.258,330.271 38.444,330.330 33.775 C 330.390 29.007,330.782 27.444,331.554 28.888 M334.916 28.913 C 335.235 29.265,335.260 29.621,335.260 33.826 L 335.260 38.360 334.780 38.630 C 333.749 39.209,333.696 38.956,333.759 33.766 C 333.822 28.513,333.975 27.874,334.916 28.913 M342.164 29.089 C 342.287 29.329,342.389 29.907,342.390 30.373 C 342.393 31.420,342.467 31.465,344.202 31.491 C 345.859 31.516,346.132 31.694,346.927 33.268 C 347.904 35.201,347.091 38.448,345.521 38.890 C 344.760 39.104,341.604 38.859,341.187 38.554 C 340.704 38.201,340.722 29.718,341.206 28.979 C 341.561 28.437,341.849 28.470,342.164 29.089 M178.230 29.391 C 178.333 29.763,178.418 30.327,178.419 30.644 C 178.420 31.398,178.636 31.506,180.044 31.457 C 181.376 31.410,181.434 31.436,182.197 32.396 L 182.754 33.097 182.754 35.759 C 182.754 38.723,182.633 39.076,181.755 38.676 C 181.320 38.477,181.309 38.426,181.309 36.453 C 181.309 33.153,180.154 31.794,178.806 33.508 C 178.463 33.944,178.420 34.229,178.420 36.037 C 178.420 37.157,178.371 38.203,178.310 38.360 C 178.191 38.671,176.895 38.773,176.717 38.485 C 176.509 38.148,176.566 29.502,176.779 29.104 C 177.153 28.405,178.003 28.573,178.230 29.391 M31.563 29.536 C 31.952 29.809,31.964 29.912,31.964 33.119 L 31.964 36.420 32.867 37.240 C 34.398 38.628,33.963 39.007,30.834 39.007 C 27.596 39.007,26.608 38.373,28.403 37.446 C 29.347 36.958,29.424 36.742,29.430 34.565 C 29.436 32.345,29.194 31.787,28.343 32.057 C 27.897 32.199,27.637 31.923,27.633 31.304 C 27.630 30.948,28.955 29.785,29.797 29.403 C 30.282 29.183,31.152 29.249,31.563 29.536 M328.305 29.524 C 328.428 29.671,328.479 29.920,328.419 30.076 C 328.259 30.493,326.798 30.369,326.715 29.931 C 326.609 29.374,327.905 29.042,328.305 29.524 M44.295 29.602 C 44.722 29.764,45.039 30.875,44.995 32.054 C 44.741 38.943,44.800 38.532,44.031 38.713 C 43.037 38.947,42.980 38.694,42.980 34.064 C 42.980 29.264,43.023 29.118,44.295 29.602 M257.454 29.887 C 257.811 30.036,258.501 30.158,258.988 30.158 C 260.146 30.158,260.434 30.636,259.990 31.823 C 259.665 32.690,259.086 35.705,259.065 36.634 C 259.053 37.172,259.123 37.264,259.684 37.446 C 260.359 37.666,260.618 38.254,260.189 38.590 C 259.278 39.304,257.725 39.181,257.052 38.342 L 256.644 37.833 256.130 38.322 C 255.366 39.050,253.905 39.323,252.989 38.910 C 250.510 37.793,251.799 31.678,254.808 30.281 C 256.397 29.543,256.570 29.518,257.454 29.887 M173.091 30.398 C 173.379 31.086,173.628 31.322,174.266 31.512 C 175.349 31.835,175.308 32.292,174.152 32.775 C 173.412 33.084,173.334 33.382,173.401 35.661 L 173.454 37.461 174.265 37.743 C 175.665 38.229,175.206 39.075,173.565 39.032 C 172.067 38.993,171.910 38.692,171.756 35.576 C 171.653 33.481,171.609 33.272,171.151 32.671 L 170.658 32.024 171.129 31.588 C 171.389 31.348,171.795 30.847,172.033 30.474 C 172.565 29.641,172.769 29.626,173.091 30.398 M140.820 30.093 C 141.047 30.154,141.350 30.430,141.493 30.706 C 141.636 30.982,142.059 31.358,142.434 31.541 C 143.276 31.952,143.283 32.108,142.483 32.646 C 141.655 33.202,141.608 33.355,141.593 35.511 L 141.580 37.342 142.393 37.724 C 143.641 38.310,143.297 38.990,141.747 39.001 C 140.311 39.011,139.774 38.119,139.774 35.722 C 139.774 33.830,139.591 32.990,139.055 32.419 L 138.689 32.029 139.157 31.590 C 139.415 31.349,139.736 30.887,139.871 30.564 C 140.132 29.941,140.174 29.920,140.820 30.093 M114.211 31.101 C 115.097 32.366,114.596 32.506,109.165 32.506 C 104.013 32.506,103.730 32.454,103.911 31.550 C 104.079 30.710,104.107 30.706,109.200 30.703 C 113.884 30.700,113.933 30.704,114.211 31.101 M256.049 31.268 C 253.679 32.413,252.875 38.084,255.147 37.630 C 256.171 37.425,257.878 34.159,257.878 32.405 C 257.878 31.441,256.922 30.846,256.049 31.268 M157.662 32.314 C 159.428 34.284,158.801 35.748,156.189 35.754 C 155.435 35.755,154.572 35.842,154.272 35.946 L 153.728 36.136 154.062 36.791 C 154.513 37.676,154.649 37.737,156.174 37.740 C 158.107 37.744,158.733 38.177,157.629 38.748 C 157.195 38.972,156.671 39.026,155.370 38.978 L 153.676 38.916 152.971 38.104 C 152.177 37.188,151.914 35.984,152.145 34.311 C 152.515 31.616,155.930 30.380,157.662 32.314 M165.062 31.696 C 166.613 32.498,166.935 38.826,165.426 38.826 C 164.799 38.826,164.695 38.443,164.695 36.121 C 164.695 32.909,163.933 31.947,162.498 33.348 L 161.806 34.024 161.806 36.222 C 161.806 38.674,161.652 39.061,160.824 38.684 C 160.406 38.493,160.394 38.424,160.327 35.813 C 160.235 32.191,160.454 31.499,161.627 31.721 C 161.874 31.768,162.280 31.725,162.528 31.626 C 163.209 31.353,164.467 31.388,165.062 31.696 M189.538 31.967 C 191.699 33.957,191.027 35.756,188.125 35.756 C 186.253 35.756,185.829 35.980,186.165 36.792 C 186.463 37.511,187.033 37.743,188.507 37.743 C 190.087 37.743,190.660 38.089,190.003 38.646 C 189.458 39.107,186.664 39.170,185.832 38.740 C 183.995 37.790,183.843 33.740,185.586 32.134 L 186.399 31.384 187.725 31.451 C 188.832 31.507,189.132 31.592,189.538 31.967 M206.283 31.589 C 207.622 32.097,208.461 38.175,207.256 38.633 C 206.528 38.910,203.256 39.071,202.843 38.850 C 200.838 37.777,201.754 34.852,204.177 34.589 C 205.567 34.439,205.793 34.302,205.716 33.659 C 205.610 32.773,205.370 32.633,204.128 32.733 C 202.954 32.827,202.619 32.687,202.619 32.103 C 202.619 31.499,205.124 31.148,206.283 31.589 M225.379 31.606 C 226.466 32.188,226.998 33.107,226.998 34.403 C 226.998 35.548,226.619 35.756,224.542 35.756 C 222.682 35.756,222.408 35.901,222.638 36.760 C 222.833 37.494,223.427 37.737,225.034 37.740 C 227.733 37.745,227.414 38.841,224.676 38.972 C 222.096 39.095,221.182 38.458,220.671 36.180 C 220.018 33.265,223.022 30.345,225.379 31.606 M237.461 32.292 C 238.938 33.815,238.902 36.572,237.382 38.232 L 236.755 38.916 235.062 38.978 C 233.384 39.039,233.363 39.035,232.722 38.473 C 231.101 37.049,231.206 33.456,232.909 32.083 L 233.770 31.389 235.237 31.451 C 236.700 31.512,236.707 31.515,237.461 32.292 M297.930 31.570 C 296.622 32.089,295.234 37.002,296.214 37.643 C 297.875 38.732,299.980 35.694,299.801 32.465 C 299.761 31.735,298.742 31.248,297.930 31.570 M353.981 32.292 C 354.664 32.982,354.748 33.164,354.816 34.099 C 354.918 35.512,354.751 35.627,352.397 35.757 C 350.331 35.872,350.001 36.021,350.345 36.685 C 350.840 37.641,351.043 37.743,352.455 37.743 C 354.378 37.743,355.036 38.175,353.959 38.731 C 353.402 39.020,350.739 39.104,350.104 38.853 C 348.307 38.144,347.811 34.231,349.300 32.499 C 350.505 31.098,352.702 31.000,353.981 32.292 M196.602 32.876 C 196.918 33.517,197.306 34.467,197.464 34.989 C 197.623 35.510,197.827 35.937,197.917 35.937 C 198.161 35.937,199.046 34.238,199.458 32.978 C 199.809 31.907,199.840 31.872,200.498 31.817 C 201.311 31.750,201.502 32.055,201.117 32.805 C 200.972 33.087,200.721 33.841,200.558 34.479 C 200.395 35.117,200.170 35.750,200.059 35.885 C 199.947 36.019,199.725 36.635,199.565 37.252 C 198.907 39.800,196.805 39.315,196.209 36.479 C 196.136 36.131,195.879 35.426,195.638 34.911 C 195.019 33.590,194.869 32.170,195.314 31.844 C 195.817 31.477,195.972 31.602,196.602 32.876 M214.087 31.852 C 214.375 32.062,214.444 32.432,214.539 34.245 C 214.692 37.185,215.055 37.883,216.303 37.633 C 217.132 37.468,217.427 36.644,217.427 34.498 C 217.427 32.261,217.585 31.783,218.330 31.783 C 219.122 31.783,219.233 32.246,219.233 35.577 C 219.233 38.909,219.455 38.606,216.810 38.870 C 213.399 39.211,213.094 38.873,213.093 34.754 C 213.092 31.667,213.241 31.233,214.087 31.852 M321.327 32.611 C 321.856 34.019,322.749 35.753,322.898 35.661 C 322.972 35.615,323.167 34.977,323.330 34.243 C 323.693 32.615,324.614 31.341,325.123 31.764 C 325.527 32.099,325.491 33.140,325.040 34.131 C 324.837 34.578,324.594 35.344,324.501 35.833 C 323.805 39.482,321.714 40.069,321.079 36.795 C 320.968 36.223,320.802 35.756,320.711 35.756 C 320.419 35.756,319.503 37.176,319.383 37.814 C 319.172 38.942,317.640 39.270,317.184 38.284 C 316.398 36.585,315.245 32.116,315.542 31.920 C 316.275 31.438,316.830 31.843,317.167 33.105 C 317.746 35.282,318.782 35.856,319.016 34.131 C 319.217 32.649,319.458 32.128,320.065 31.864 C 320.838 31.528,320.943 31.590,321.327 32.611 M328.316 32.258 C 328.417 32.525,328.475 34.008,328.447 35.644 L 328.397 38.555 327.585 38.555 L 326.772 38.555 326.722 35.527 C 326.667 32.156,326.754 31.783,327.595 31.783 C 328.012 31.783,328.177 31.892,328.316 32.258 M66.059 32.722 C 66.178 32.842,66.275 33.243,66.275 33.615 C 66.275 34.799,66.061 34.853,61.400 34.853 C 56.504 34.853,55.802 34.554,56.711 32.855 C 56.940 32.426,65.639 32.303,66.059 32.722 M97.588 32.791 C 98.297 34.638,97.809 34.853,92.912 34.853 C 88.015 34.853,87.527 34.638,88.236 32.791 C 88.402 32.359,97.422 32.359,97.588 32.791 M154.318 33.331 C 153.879 34.381,153.990 34.494,155.455 34.489 C 156.698 34.485,156.871 34.323,156.548 33.469 C 156.145 32.409,154.740 32.321,154.318 33.331 M186.468 33.352 C 185.832 34.288,186.075 34.523,187.613 34.455 L 188.804 34.402 188.781 33.704 C 188.741 32.438,187.244 32.210,186.468 33.352 M223.146 32.912 C 222.951 33.055,222.803 33.410,222.785 33.778 L 222.754 34.402 223.944 34.455 C 225.464 34.522,225.738 34.279,225.141 33.390 C 224.679 32.702,223.740 32.477,223.146 32.912 M233.959 33.254 C 232.831 34.290,232.853 36.486,233.999 37.388 C 235.711 38.734,237.624 36.220,236.560 34.022 C 235.863 32.583,234.975 32.321,233.959 33.254 M343.065 33.367 C 341.249 35.227,343.229 39.055,345.088 37.280 C 345.861 36.542,345.360 32.867,344.487 32.867 C 344.345 32.867,344.118 32.824,343.983 32.773 C 343.848 32.721,343.435 32.988,343.065 33.367 M350.960 32.820 C 349.918 33.570,350.321 34.487,351.693 34.487 C 352.997 34.487,353.172 34.331,352.846 33.469 C 352.580 32.767,351.534 32.407,350.960 32.820 M114.206 34.963 C 114.534 35.088,114.578 35.619,114.305 36.129 C 114.075 36.559,104.475 36.683,104.054 36.262 C 103.822 36.030,103.758 35.173,103.958 34.974 C 104.108 34.823,113.816 34.813,114.206 34.963 M204.030 35.982 C 203.563 36.354,203.467 37.339,203.876 37.559 C 204.770 38.037,205.551 37.723,205.784 36.791 C 206.009 35.898,204.821 35.351,204.030 35.982 M37.593 36.777 C 38.437 37.542,37.908 38.826,36.749 38.826 C 35.833 38.826,35.576 38.583,35.576 37.719 C 35.576 36.586,36.767 36.030,37.593 36.777 M134.271 36.911 C 134.681 37.211,134.736 38.829,134.361 39.558 C 133.600 41.037,131.998 41.536,132.271 40.210 C 132.335 39.896,132.434 39.082,132.491 38.402 C 132.588 37.228,132.622 37.153,133.159 36.919 C 133.871 36.609,133.859 36.609,134.271 36.911 M359.103 38.639 C 358.677 39.109,358.250 39.106,357.817 38.629 C 357.479 38.255,357.481 38.245,357.997 37.802 L 358.518 37.353 358.977 37.812 C 359.426 38.260,359.429 38.279,359.103 38.639 M60.878 39.503 C 60.983 39.777,61.032 40.344,60.986 40.764 C 60.862 41.899,61.194 42.272,61.951 41.849 C 64.280 40.546,65.393 44.714,63.350 47.090 C 62.371 48.229,62.423 48.209,60.217 48.315 C 57.601 48.441,57.375 48.180,58.138 45.915 C 58.331 45.343,58.582 44.235,58.696 43.451 C 58.810 42.668,59.012 41.667,59.145 41.226 C 59.323 40.632,59.336 40.285,59.194 39.878 C 58.853 38.900,60.503 38.533,60.878 39.503 M95.314 41.932 C 95.628 42.246,95.580 43.202,95.191 44.385 C 94.504 46.469,94.517 46.698,95.343 47.219 C 96.229 47.778,96.232 47.807,95.446 48.136 C 94.557 48.507,93.665 48.469,93.279 48.043 C 92.979 47.711,92.924 47.706,92.409 47.972 C 90.430 48.996,89.156 48.439,89.059 46.508 C 88.927 43.899,89.981 42.079,91.658 42.018 C 92.727 41.980,92.936 42.366,92.111 42.854 C 91.442 43.249,90.663 44.751,90.526 45.909 C 90.425 46.762,90.965 47.314,91.900 47.314 C 92.654 47.314,93.751 44.193,93.376 43.117 C 92.960 41.927,93.076 41.716,94.140 41.716 C 94.666 41.716,95.195 41.813,95.314 41.932 M60.676 43.823 C 59.542 45.503,59.628 47.665,60.818 47.381 C 61.550 47.206,61.941 46.969,61.941 46.700 C 61.941 46.568,62.099 46.259,62.292 46.013 C 62.734 45.452,62.960 43.895,62.677 43.366 C 62.280 42.624,61.340 42.839,60.676 43.823 M32.323 70.428 C 32.715 70.638,33.430 72.124,33.747 73.388 C 33.868 73.873,34.115 74.564,34.296 74.923 C 34.476 75.282,34.723 75.998,34.845 76.515 C 34.966 77.031,35.179 77.548,35.318 77.663 C 35.781 78.047,35.967 79.126,35.633 79.494 C 35.098 80.086,33.817 79.939,33.445 79.244 C 32.799 78.035,32.461 77.833,31.082 77.833 C 29.791 77.833,29.255 78.077,29.255 78.667 C 29.255 79.488,27.741 80.121,27.036 79.594 C 26.699 79.341,27.003 77.851,27.783 75.937 C 27.985 75.440,28.286 74.628,28.451 74.131 C 29.499 70.983,29.674 70.576,30.045 70.426 C 30.578 70.211,31.919 70.212,32.323 70.428 M66.414 75.556 L 66.462 80.369 67.450 80.837 C 68.916 81.531,68.166 81.984,65.553 81.984 C 62.922 81.984,62.161 81.512,63.655 80.806 L 64.657 80.332 64.609 76.623 L 64.560 72.915 63.747 72.615 C 62.625 72.201,62.721 71.919,64.289 71.035 C 66.424 69.830,66.355 69.683,66.414 75.556 M30.717 74.068 C 30.328 75.184,30.619 76.180,31.237 75.849 C 31.774 75.561,31.836 75.033,31.427 74.231 C 30.978 73.351,30.968 73.349,30.717 74.068 M38.677 77.771 C 39.487 78.504,38.878 79.819,37.728 79.819 C 36.585 79.819,36.091 78.827,36.760 77.873 C 37.104 77.381,38.182 77.323,38.677 77.771 M32.755 98.851 C 33.643 99.222,34.199 100.223,34.047 101.180 C 33.810 102.670,33.861 103.189,34.299 103.783 C 35.135 104.913,34.899 106.420,33.726 107.439 C 32.711 108.321,29.057 108.658,27.802 107.987 C 27.215 107.673,27.260 99.295,27.851 98.882 C 28.385 98.507,31.881 98.485,32.755 98.851 M67.575 99.450 C 69.657 101.478,69.568 107.673,67.427 109.692 C 66.746 110.334,66.732 110.339,65.126 110.339 L 63.509 110.339 62.737 109.497 C 61.057 107.668,61.093 101.796,62.797 99.758 C 63.966 98.359,66.301 98.208,67.575 99.450 M64.212 100.080 C 64.172 100.210,64.002 100.722,63.834 101.219 C 63.142 103.268,63.435 107.956,64.323 109.025 C 64.679 109.454,65.847 109.307,66.262 108.780 C 67.196 107.592,67.320 102.335,66.451 100.767 C 65.975 99.911,64.413 99.431,64.212 100.080 M30.188 100.695 C 29.593 101.112,29.737 101.706,30.485 101.919 C 30.991 102.064,31.142 102.031,31.469 101.704 L 31.855 101.318 31.426 100.862 C 30.926 100.329,30.745 100.305,30.188 100.695 M30.339 104.179 C 29.561 104.394,29.579 105.854,30.365 106.234 C 31.055 106.569,32.327 106.095,32.323 105.504 C 32.317 104.789,32.083 104.393,31.558 104.210 C 30.954 104.000,30.984 104.000,30.339 104.179 M38.414 106.218 C 38.803 106.541,38.699 107.572,38.244 107.890 C 37.367 108.505,36.391 108.128,36.257 107.124 C 36.098 105.937,37.411 105.386,38.414 106.218 M33.965 128.536 C 35.059 129.759,34.039 130.757,32.506 129.964 C 31.121 129.249,29.736 130.509,29.643 132.568 C 29.527 135.128,30.336 135.904,32.899 135.687 C 34.437 135.557,34.594 135.653,34.414 136.613 C 34.191 137.801,30.690 138.268,29.077 137.325 C 26.106 135.589,26.660 128.638,29.822 127.977 C 31.350 127.658,33.432 127.939,33.965 128.536 M79.173 128.326 C 79.421 128.422,79.461 129.000,79.480 132.796 C 79.506 138.228,79.486 138.123,80.624 138.666 L 81.519 139.093 80.985 139.389 C 80.277 139.780,76.423 139.817,75.965 139.436 C 75.512 139.060,75.597 138.906,76.390 138.669 C 77.491 138.339,77.484 138.370,77.430 134.243 L 77.381 130.474 76.659 130.384 C 75.566 130.247,75.537 129.601,76.604 129.143 C 77.034 128.959,77.497 128.675,77.632 128.512 C 77.879 128.215,78.642 128.123,79.173 128.326 M71.512 134.412 C 71.860 134.531,72.144 134.749,72.144 134.898 C 72.144 135.445,70.979 135.600,66.781 135.611 C 62.144 135.622,61.016 135.378,61.986 134.575 C 62.489 134.159,70.375 134.024,71.512 134.412 M37.839 135.490 C 38.791 136.309,38.035 137.783,36.790 137.534 C 35.098 137.196,35.427 135.402,37.236 135.100 C 37.305 135.088,37.576 135.264,37.839 135.490 M31.976 156.373 C 34.562 156.706,35.666 158.116,35.666 161.084 C 35.666 163.481,35.344 164.197,33.772 165.298 C 32.765 166.003,28.769 166.274,27.888 165.697 L 27.443 165.405 27.491 161.032 L 27.540 156.659 28.172 156.444 C 28.922 156.188,30.340 156.161,31.976 156.373 M67.655 156.986 C 69.063 158.276,68.642 160.864,66.739 162.619 C 65.893 163.398,64.289 165.382,64.289 165.649 C 64.289 166.619,65.584 166.832,67.077 166.107 C 68.072 165.624,68.623 165.931,68.623 166.970 C 68.623 167.994,68.218 168.126,65.081 168.126 C 61.487 168.126,60.841 167.603,62.294 165.869 C 62.461 165.670,62.734 165.287,62.902 165.017 C 63.070 164.746,63.820 163.795,64.569 162.902 C 66.111 161.063,66.560 160.056,66.377 158.840 C 66.147 157.303,64.652 156.979,63.294 158.171 C 62.536 158.837,62.461 158.849,62.028 158.371 C 60.570 156.759,65.961 155.433,67.655 156.986 M30.277 158.385 C 29.801 158.759,29.797 158.784,29.797 161.105 L 29.797 163.449 30.349 163.681 C 33.058 164.820,34.773 159.861,32.128 158.536 C 31.066 158.004,30.789 157.982,30.277 158.385 M38.893 163.843 C 39.783 164.733,39.086 166.129,37.873 165.886 C 36.518 165.615,36.373 164.007,37.668 163.620 C 38.432 163.391,38.443 163.393,38.893 163.843 " stroke="none" fill="#fbfbfb" fill-rule="evenodd"></path></g></svg>